<svg xmlns="http://www.w3.org/2000/svg" xmlns:xlink="http://www.w3.org/1999/xlink" width="1972.871" height="1424.32" xmlns:v="https://vecta.io/nano"><style><![CDATA[.B{fill:none}.C{stroke-miterlimit:10}.D{fill:#fff}.E{fill:#ffdfd9}.F{stroke-width:.5}.G{fill:#e3edf9}.H{stroke-width:.75}.I{fill:#e3315e}.J{opacity:.55}.K{stroke:#f2b6aa}.L{flood-opacity:.161}.M{stroke:#fff}.N{fill:#ffb703}.O{clip-path:url(#C)}.P{stroke:#003fa8}.Q{fill:#0240ad}.R{fill:#c9daf0}.S{stroke:#061186}.T{fill:#223554}.U{flood-color:#761818}.V{stroke-dasharray:5 3}.W{stroke-linejoin:round}.X{stroke-dasharray:2 1}]]></style><defs><filter id="A" x="0" y="1047.332" width="662.086" height="376.988" filterUnits="userSpaceOnUse"><feOffset/><feGaussianBlur stdDeviation="49.5" result="A"/><feFlood class="U"/><feComposite operator="in" in2="A"/><feComposite in="SourceGraphic"/></filter><filter id="B" x="1476.073" y="1076.205" width="488.657" height="229.988" filterUnits="userSpaceOnUse"><feOffset/><feGaussianBlur stdDeviation="25" result="A"/><feFlood class="U"/><feComposite operator="in" in2="A"/><feComposite in="SourceGraphic"/></filter><clipPath id="C"><path d="M0 0h1803.36v1218.564H0z" class="B"/></clipPath><clipPath id="D"><path d="M0 0h436.006v50.331H0z" class="B"/></clipPath><clipPath id="E"><path d="M216.25,188.185a99.4,99.4,0,1,0,99.405-99.4,99.4,99.4,0,0,0-99.405,99.4" transform="translate(-216.25 -88.783)" class="B"/></clipPath><clipPath id="F"><path d="M222.528,265.18a64.608,64.608,0,1,0,64.608-64.612,64.608,64.608,0,0,0-64.608,64.612" transform="translate(-222.528 -200.568)" class="B"/></clipPath><clipPath id="G"><path d="M0 0h313.087v142.465H0z" class="B"/></clipPath><clipPath id="H"><path d="M0 0h273.736v69.03H0z" class="B"/></clipPath><clipPath id="I"><path d="M0 0h85.329v13.133H0z" class="B"/></clipPath><clipPath id="J"><path d="M0 0h313.087v142.464H0z" class="B"/></clipPath><clipPath id="K"><path d="M0 0h273.736v69.029H0z" class="B"/></clipPath><clipPath id="L"><path d="M0 0h85.329v13.132H0z" class="B"/></clipPath><filter id="M" x="1596.994" y="1153.402" width="72.848" height="48.689" filterUnits="userSpaceOnUse"><feOffset dy="3"/><feGaussianBlur stdDeviation="3" result="A"/><feFlood class="L"/><feComposite operator="in" in2="A"/><feComposite in="SourceGraphic"/></filter><filter id="N" x="1732.41" y="1153.402" width="72.847" height="48.689" filterUnits="userSpaceOnUse"><feOffset dy="3"/><feGaussianBlur stdDeviation="3" result="A"/><feFlood class="L"/><feComposite operator="in" in2="A"/><feComposite in="SourceGraphic"/></filter><filter id="O" x="270.375" y="1195.408" width="81.466" height="44.785" filterUnits="userSpaceOnUse"><feOffset/><feGaussianBlur stdDeviation="3" result="A"/><feFlood class="L"/><feComposite operator="in" in2="A"/><feComposite in="SourceGraphic"/></filter><filter id="P" x="388.156" y="1195.408" width="81.466" height="44.785" filterUnits="userSpaceOnUse"><feOffset/><feGaussianBlur stdDeviation="3" result="A"/><feFlood class="L"/><feComposite operator="in" in2="A"/><feComposite in="SourceGraphic"/></filter><path id="Q" d="M665.839 668.761c.001 38.143 30.923 69.063 69.066 69.063s69.064-30.921 69.064-69.064-30.92-69.065-69.063-69.066-69.066 30.923-69.067 69.067"/><path id="R" d="M670.294 668.761c.001 35.683 28.928 64.608 64.611 64.608s64.609-28.927 64.609-64.609-28.925-64.61-64.608-64.611a64.61 64.61 0 0 0-64.612 64.612"/><path id="S" d="M11.362 142.465h290.363c6.275-.001 11.361-5.087 11.362-11.362V11.362C313.086 5.087 308 .001 301.725 0H11.362C5.087.001.001 5.087 0 11.362v119.741c.001 6.275 5.087 11.361 11.362 11.362"/><path id="T" d="M867.789 734.059l3.392 8.856 9.47.488c.854.045 1.591.611 1.855 1.424s-.001 1.705-.665 2.242l-7.374 5.961 2.461 9.16c.221.825-.089 1.702-.781 2.204s-1.621.526-2.337.061l-7.949-5.172-7.949 5.172c-.717.465-1.646.441-2.337-.061s-1.002-1.379-.781-2.204l2.464-9.16-7.377-5.961c-.665-.538-.929-1.43-.665-2.243s1.003-1.379 1.858-1.423l9.47-.488 3.389-8.856c.305-.799 1.072-1.327 1.928-1.327s1.623.528 1.928 1.327"/><path id="U" d="M360.09 353.348l3.392 8.856 9.47.488c.854.044 1.593.61 1.857 1.423s-.001 1.706-.667 2.243l-7.374 5.961 2.461 9.16a2.06 2.06 0 0 1-3.118 2.265l-7.949-5.172-7.949 5.172c-.716.467-1.647.443-2.338-.06s-1.002-1.38-.78-2.205l2.464-9.16-7.377-5.961c-.665-.538-.929-1.43-.665-2.243s1.003-1.379 1.858-1.423l9.47-.488 3.392-8.856a2.06 2.06 0 0 1 3.853 0"/></defs><g transform="translate(-909.188 -219.771)"><g transform="translate(909.19 219.77)" filter="url(#A)" class="D"><path d="M182.543,0C283.359,0,365.086,17.906,365.086,39.994S283.359,79.988,182.543,79.988,0,62.082,0,39.994,81.727,0,182.543,0Z" transform="translate(148.5 1195.83)" opacity=".2"/></g><g transform="translate(909.19 219.77)" filter="url(#B)" class="D"><path d="M169.328 0c93.517 0 169.328 17.906 169.328 39.994s-75.81 39.994-169.328 39.994S0 62.082 0 39.994 75.811 0 169.328 0z" transform="translate(1551.07 1151.2)" opacity=".2"/></g><g transform="translate(1078.7 219.771)" class="O"><path d="M702.003 114.084c21.613-57.033 88.028-83.926 143.368-87.378 140.061-8.735 219.366 92.869 297.9 193.253 38.553 49.279 94.685 86.314 168.5 86.314 109.075 0 303.816-46.448 408.781 61.78 77.248 79.648 107.861 205.41 54.584 322.443-57.222 125.708-175.34 154.54-299.523 177.472-148.387 27.4-260.973 68.392-350.74 163.466" class="B C M V"/><path d="M1353.606 71.223h-94.944l17.368-14.69V9.3a9.3 9.3 0 0 1 9.3-9.3h68.276a9.3 9.3 0 0 1 9.3 9.3v52.625a9.3 9.3 0 0 1-9.3 9.3" class="D"/><g fill="#131b6e"><path d="M1330.29 31.068h3.874l6.166.024a6.96 6.96 0 0 1 4.1 1.277 4.7 4.7 0 0 1 .145 7.57l-.262.208a4.16 4.16 0 0 1 1.7 3.868c-.075 1.498-.941 2.844-2.274 3.533 1.533 2.575 1.057 4.85-1.241 6.314.21.599.372 1.214.486 1.839.147.957-.114 1.933-.719 2.689a3.47 3.47 0 0 1-2.465 1.293 11.66 11.66 0 0 1-1.413.09c-7.726 0-15.45-.012-23.176.015a4.6 4.6 0 0 1-3.344-1.6.54.54 0 0 1-.093-.349q-.009-11.377.009-22.754a2.69 2.69 0 0 1 1.063-1.925l3.663-3.262c2.121-1.862 4.2-3.762 6.163-5.8a24.46 24.46 0 0 0 5.512-9.823l.259-.8a2.98 2.98 0 0 1 3.678-2.024 4.07 4.07 0 0 1 2.9 2.063c.916 1.631 1.223 3.534.868 5.371a21.36 21.36 0 0 1-2.6 6.952c-.874 1.6-1.81 3.169-2.72 4.75l-.274.482m-33.766 15.738v-11.3a1.58 1.58 0 0 1 1.762-1.777h8.579a1.59 1.59 0 0 1 1.321.451c.347.346.514.834.453 1.32v22.596c.059.479-.105.959-.447 1.3a1.57 1.57 0 0 1-1.3.447q-4.31 0-8.618 0a1.56 1.56 0 0 1-1.75-1.741v-11.3"/></g><path d="M668.249 340.974c-2.329 48.653-113.093 45.111-146.549 52.963-143.844 33.755-286.948 119.137-333.79 261.344-48.177 146.26 65.764 306.075 187.593 341.233 116.2 33.535 241.1 5.85 352.941-41.261 15.23-6.416 32.475-15.986 34.688-33.038" class="B C M V"/><path d="M1161.82 1163.263H657.566c-37.866-.001-68.563-30.698-68.563-68.564V157.841c.002-37.865 30.698-68.559 68.563-68.56h504.25c18.184-.001 35.624 7.222 48.483 20.079s20.084 30.297 20.085 48.481v936.855c0 37.866-30.697 68.563-68.563 68.564" class="I"/><path fill="#dfeaf7" d="M619.807 163.303h579.778v925.939H619.807z"/><g class="D"><path d="M961.534 133.012h-103.68a5 5 0 0 1 0-9.994h103.68a5 5 0 0 1 0 9.994m-30.701 995.422a21.14 21.14 0 1 1-21.14-21.14 21.14 21.14 0 0 1 21.14 21.14"/></g><path d="M619.807 204.751h539.45c9.537.001 17.268 7.732 17.269 17.269v270.615c0 4.58-1.82 8.972-5.058 12.21s-7.631 5.057-12.211 5.056h-539.45" stroke-width="2" class="B C P"/><path d="M1382.243 483.104h-552.83l62.948-53.242v-187.5c.001-9.625 7.804-17.428 17.429-17.429h472.453c9.625.001 17.428 7.804 17.429 17.429v223.313c0 9.626-7.803 17.429-17.429 17.429" class="D"/><g class="J G"><g clip-path="url(#D)" transform="translate(935.041 321.678)"><path d="M0 0h436.006v10.229H0zm0 20.052h436.006v10.229H0zm0 20.049h436.006V50.33H0z"/></g></g><path d="M1251.234 301.385H942.099a7.06 7.06 0 0 1-7.058-7.058v-29.549a7.06 7.06 0 0 1 7.058-7.058h309.135c1.872 0 3.667.744 4.99 2.067s2.067 3.119 2.067 4.991v29.55c0 1.872-.743 3.667-2.067 4.991s-3.119 2.067-4.99 2.067" class="G"/><g class="N"><path d="M970.582 390.705l6.452 16.853 18.025.934c1.624.084 3.029 1.16 3.531 2.707s-.001 3.244-1.266 4.266l-14.033 11.348 4.684 17.425c.424 1.571-.165 3.24-1.482 4.197s-3.086 1.001-4.449.113l-15.127-9.841-15.13 9.841c-1.363.888-3.133.843-4.449-.113s-1.906-2.626-1.482-4.197l4.684-17.425-14.034-11.347c-1.266-1.023-1.769-2.72-1.266-4.267s1.909-2.624 3.534-2.706l18.022-.934 6.452-16.853a3.93 3.93 0 0 1 7.335 0m93.064-.001l6.452 16.853 18.025.934c1.624.084 3.029 1.16 3.531 2.707s-.001 3.244-1.266 4.266l-14.033 11.348 4.684 17.425c.423 1.571-.167 3.241-1.484 4.197s-3.087 1.001-4.45.113l-15.124-9.841-15.127 9.841c-1.363.888-3.134.843-4.45-.113s-1.907-2.626-1.484-4.197l4.687-17.425-14.037-11.348c-1.265-1.022-1.769-2.719-1.266-4.266s1.907-2.624 3.531-2.707l18.025-.934 6.452-16.853a3.93 3.93 0 0 1 7.335 0m93.063 0l6.452 16.853 18.025.934c1.624.084 3.029 1.16 3.531 2.707s-.001 3.244-1.266 4.266l-14.033 11.348 4.684 17.425c.424 1.571-.165 3.24-1.482 4.197s-3.086 1.001-4.449.113l-15.127-9.841-15.127 9.841c-1.363.888-3.134.843-4.45-.113s-1.907-2.626-1.484-4.197l4.684-17.425-14.034-11.347c-1.265-1.022-1.769-2.719-1.266-4.266s1.907-2.624 3.531-2.707l18.025-.934 6.452-16.853a3.93 3.93 0 0 1 7.334 0"/></g><g class="Q"><path d="M1246.107 391.196c.384-.018.732.222.852.587l6.455 16.853.7 1.831 1.958.1 18.025.931c.378.02.705.27.822.631s-.001.755-.295.993l-14.037 11.344-1.524 1.232.509 1.895 4.687 17.429a.83.83 0 0 1-.133.771 1 1 0 0 1-.756.395.9.9 0 0 1-.494-.163l-15.127-9.841-1.642-1.071-1.642 1.069-15.127 9.841a.9.9 0 0 1-.491.163 1 1 0 0 1-.759-.395.83.83 0 0 1-.133-.771l4.687-17.429.509-1.895-1.524-1.232-14.037-11.344c-.295-.238-.412-.633-.295-.993s.444-.611.822-.631l18.025-.931 1.958-.1.7-1.831 6.452-16.853a.86.86 0 0 1 .856-.587m0-3.012a3.86 3.86 0 0 0-3.666 2.524l-6.452 16.853-18.025.928a3.93 3.93 0 0 0-2.268 6.976l14.036 11.35-4.687 17.428a3.94 3.94 0 0 0 3.8 4.961 3.89 3.89 0 0 0 2.133-.651l15.127-9.841 15.127 9.841a3.89 3.89 0 0 0 2.136.651 3.94 3.94 0 0 0 3.8-4.961l-4.688-17.428 14.037-11.344a3.93 3.93 0 0 0-2.268-6.976l-18.022-.928-6.455-16.852a3.86 3.86 0 0 0-3.666-2.524m93.065 3.007a.86.86 0 0 1 .855.587l6.452 16.853.7 1.831 1.958.1 18.025.931c.378.02.705.27.822.631s-.001.755-.295.993l-14.037 11.344-1.524 1.232.509 1.895 4.687 17.429a.83.83 0 0 1-.133.771 1 1 0 0 1-.756.395.9.9 0 0 1-.494-.163l-15.127-9.841-1.642-1.069-1.642 1.069-15.127 9.841a.9.9 0 0 1-.491.163 1 1 0 0 1-.759-.395.83.83 0 0 1-.132-.771l4.687-17.429.509-1.895-1.524-1.232-14.037-11.344c-.295-.238-.412-.633-.295-.993s.444-.611.822-.631l18.025-.931 1.958-.1.7-1.831 6.452-16.853a.86.86 0 0 1 .856-.587m0-3.012a3.86 3.86 0 0 0-3.666 2.524l-6.455 16.853-18.022.928a3.93 3.93 0 0 0-2.268 6.976l14.033 11.348-4.687 17.428a3.94 3.94 0 0 0 3.8 4.961 3.89 3.89 0 0 0 2.133-.651l15.127-9.841 15.127 9.838a3.89 3.89 0 0 0 2.136.651 3.94 3.94 0 0 0 3.8-4.961l-4.686-17.425 14.037-11.344a3.93 3.93 0 0 0-2.268-6.976l-18.019-.932-6.458-16.848a3.86 3.86 0 0 0-3.666-2.524"/></g><path d="M1246.107 388.184a3.86 3.86 0 0 0-3.666 2.521l-6.452 16.856-18.025.928a3.93 3.93 0 0 0-2.268 6.976l14.037 11.348-4.687 17.428c-.422 1.571.169 3.24 1.485 4.195s3.085 1.001 4.449.115l15.127-9.841z" class="N"/><path d="M857.047 366.834c-.001 58.684-47.573 106.256-106.257 106.256s-106.256-47.573-106.257-106.257 47.572-106.257 106.256-106.257 106.257 47.574 106.258 106.258" class="D"/><path d="M850.191 366.833c0 54.897-44.503 99.4-99.4 99.4s-99.4-44.503-99.4-99.4 44.503-99.4 99.4-99.4 99.4 44.503 99.4 99.4" class="R"/></g><g clip-path="url(#E)" transform="translate(1730.086 487.202)"><path d="M35.953 135.273c20.284-23.215 50.527-22.712 50.527-22.712l29.86-.5s26.586 3.5 42.568 16.591c47.846 39.189 39.9 108.023 39.9 108.023L4.491 193.296c-.274-1.367 17.917-42.523 31.462-58.023z" class="B C M"/><g fill="#fee5e6"><path d="M119.77 55.385c6.039 24.366-4.937 42.562-14.347 43.978-13.461 2.024-20.983-4.594-24.95-16.6-1.753-5.3-4.344-25.378 1.25-31.273 9.293-9.79 32.905-16.853 38.047 3.895"/><path d="M88.031 88.007l-1.371 22.4s-3.142 10.172 15.284 10.172 13.983-10.172 13.983-10.172l-3.009-24.82"/></g><path d="M87.137 95.029s3.524 6.262 13.112 6.262c5.639.006 10.916-2.778 14.094-7.437" class="B C F K"/><path d="M77.263 40.505c12.254-10.585 35.056-13.365 47.421-.675 14.776 15.424 21.475 36.879 18.1 57.97-.086.96-.419 1.882-.967 2.675a5.7 5.7 0 0 1-3.663 1.584 73.91 73.91 0 0 1-12.2 1.078c-3.615.066-6.979-.563-10.582-.383a1.51 1.51 0 0 1-.648-.06c-.5-.2-.635-.828-.7-1.362q-.289-2.3-.579-4.6a6.03 6.03 0 0 1-.039-1.874 6.64 6.64 0 0 1 .85-1.952c2.485-4.512 4.395-9.874 4.407-15.022.012-5.669-1.44-11.205-2.868-16.648-1.934-7.365-6.124-5.482-11.507-3.479-4.21 1.561-8.856 1.458-12.992-.289-2.124-.916-4.145-2.289-6.452-2.413-9.139-.494-5.407 18.332-4.488 22.968.982 4.961 1.75 9.832 5.292 13.7a13.18 13.18 0 0 1 1.636 1.937 8.82 8.82 0 0 1 1.006 3.591 49.37 49.37 0 0 1 .346 5.621c-4 .012-7.913.371-11.889.364-4.326-.006-8.654-.479-12.967-.479-1.175.048-2.328-.327-3.25-1.057-.988-1.006-.934-2.606-.813-4.012 1.756-20.233 1.777-43.562 17.546-57.183"/><g fill="#fee5e6"><path d="M81.402 73.781c-1.381-1.285-3.456-1.474-5.045-.458a4.69 4.69 0 0 0-1.648 3.753 8.54 8.54 0 0 0 .524 3.9c.567 1.342 1.655 2.396 3.015 2.919a4.63 4.63 0 0 0 4.413-.566m36.317-9.548c1.381-1.285 3.456-1.474 5.045-.458a4.69 4.69 0 0 1 1.648 3.753 8.54 8.54 0 0 1-.524 3.9c-.567 1.342-1.655 2.396-3.015 2.919-1.471.576-3.135.363-4.413-.566"/></g></g><g transform="translate(1078.7 219.771)" class="O"><use xlink:href="#Q" class="D"/><use xlink:href="#R" class="R"/></g><g clip-path="url(#F)" transform="translate(1748.997 823.92)"><path d="M109.249 89.182c-11.428-13.489-34.652-13.4-34.652-13.4l-17.121-.286s-22.272.319-32.357 11.052C3.546 109.504 7.895 143.171 7.895 143.171l113.719-.1c.156-.787-.56-39.954-12.365-53.889z" class="B C M"/><path d="M55.509 43.005c-3.464 13.971 2.831 24.408 8.226 25.218 7.72 1.16 12.031-2.636 14.308-9.519 1-3.042 2.491-14.552-.717-17.932-5.329-5.615-18.868-9.666-21.817 2.232" fill="#efc5c8"/><path d="M67.465 40.366c-.916-.127-1.85-.069-2.759-.232a5.85 5.85 0 0 1-3.172-1.765c-1.937-2.03-5.729 6.464-5.729 6.464-.723 4.353-1.181 8.362-.187 13.13a20.83 20.83 0 0 1-6.777-6.606 11.7 11.7 0 0 1-1.431-9.166c1-3.346 3.723-5.85 5.5-8.856a26.44 26.44 0 0 1 2.94-4.789c1.459-1.415 3.258-2.43 5.223-2.949 3.533-1.193 7.31-1.478 10.982-.828a15.24 15.24 0 0 1 9.3 5.645c2.413 3.268 3.166 7.464 3.443 11.516.307 4.524-.054 9.509-3.114 12.853-.822.9-2.355 1.615-3.148.69a2.6 2.6 0 0 1-.268-2.081c.4-2.877.148-6.127-1.916-8.169-1.305-1.056-2.766-1.903-4.332-2.509-1.593-.813-2.747-2.1-4.557-2.346"/><path d="M73.708 61.711l.783 12.847s1.8 5.832-8.763 5.832-8.018-5.832-8.018-5.832l1.726-14.233" fill="#efc5c8"/><path d="M73.675 65.703c-1.456 2.626-4.258 4.218-7.259 4.124-5.307 0-7.8-4.9-7.8-4.9" stroke="#e09da5" class="B C F"/></g><g transform="translate(1078.7 232.4)" class="O"><g opacity=".65" class="D"><g clip-path="url(#G)" transform="translate(837.465 597.529)"><use xlink:href="#S"/></g></g><g class="J G"><g clip-path="url(#H)" transform="translate(853.26 652.573)"><path d="M-.003.003h273.739v10.031H-.003zm0 19.664h273.739v10.034H-.003zm0 19.666h273.739v10.031H-.003zm0 19.664h88.088v10.034H-.003z"/></g></g><g class="J G"><g clip-path="url(#I)" transform="translate(1041.667 709.118)"><path d="M11.699 6.055a6.21 6.21 0 0 1-.482 2.41l1.672 3.319-3.627-.81c-.985.737-2.183 1.135-3.413 1.136A6.06 6.06 0 0 1 1.284 1.846a6.06 6.06 0 0 1 10.415 4.209m38.752-2.19a3.3 3.3 0 1 0-6.6 0 3.3 3.3 0 1 0-6.6 0c-.004.9.343 1.767.967 2.416l5.633 5.829 5.633-5.829c.623-.65.97-1.516.967-2.416M69.121.449H85.33v2.473H69.121zm0 5.106H85.33v2.473H69.121zm0 5.105H85.33v2.473H69.121z"/></g></g><path d="M1031.269 639.714H856.812c-1.961-.001-3.55-1.59-3.551-3.551v-16.992c.001-1.961 1.59-3.55 3.551-3.551h174.457c1.961.001 3.55 1.59 3.551 3.551v16.992c-.001 1.961-1.59 3.55-3.551 3.551" class="G"/><path d="M648.599 566.284h522.192c3.166 0 5.733 2.567 5.733 5.733v193.488c0 3.166-2.566 5.732-5.732 5.732H648.599c-1.52 0-2.979-.604-4.054-1.679s-1.679-2.533-1.679-4.054V572.017c0-3.166 2.567-5.733 5.733-5.733z" class="B C P"/><path d="M665.839 931.978c.001 38.143 30.923 69.063 69.066 69.063s69.064-30.921 69.064-69.064-30.92-69.065-69.063-69.066-69.066 30.923-69.067 69.067" class="D"/><path d="M670.294 931.978c.001 35.683 28.928 64.608 64.611 64.608s64.609-28.927 64.609-64.609-28.925-64.61-64.608-64.611a64.61 64.61 0 0 0-64.612 64.612" class="R"/><g opacity=".65" class="D"><g clip-path="url(#J)" transform="translate(837.465 860.746)"><use xlink:href="#S"/></g></g><g class="J G"><g clip-path="url(#K)" transform="translate(853.26 915.791)"><path d="M-.003 0h273.739v10.034H-.003zm0 19.667h273.739v10.034H-.003zm0 19.663h273.739v10.034H-.003zm0 19.667h88.088v10.034H-.003z"/></g></g><g class="J G"><g clip-path="url(#L)" transform="translate(1041.667 972.337)"><path d="M11.699 6.054a6.21 6.21 0 0 1-.482 2.41l1.672 3.319-3.627-.81c-.985.737-2.183 1.135-3.413 1.136A6.06 6.06 0 0 1 1.284 1.845a6.06 6.06 0 0 1 10.415 4.209m38.752-2.191a3.3 3.3 0 1 0-6.6 0 3.3 3.3 0 1 0-6.6 0 3.45 3.45 0 0 0 .967 2.413l5.633 5.832 5.633-5.832c.623-.648.97-1.514.967-2.413M69.121.448H85.33v2.473H69.121zm0 5.105H85.33v2.473H69.121zm0 5.106H85.33v2.473H69.121z"/></g></g><path d="M1031.269 902.932H856.812c-1.961-.001-3.551-1.591-3.551-3.552v-16.992c.001-1.961 1.59-3.55 3.551-3.551h174.457c1.961.001 3.55 1.59 3.551 3.551v16.989c0 1.961-1.59 3.551-3.551 3.552" class="G"/><path d="M648.599 829.502h522.192c3.166 0 5.733 2.567 5.733 5.733v193.488c0 3.166-2.566 5.732-5.732 5.732H648.599c-1.52 0-2.979-.604-4.054-1.679s-1.679-2.533-1.679-4.054V835.235c0-3.166 2.567-5.733 5.733-5.733z" class="B C P"/><path d="M1310.782 487.563q-1.69-4.69-3.38-9.374a17.8 17.8 0 0 0-2.19-4.624 6.02 6.02 0 0 0-4.232-2.615c-1.636-.117-2.166-.834-3.139-2.012a26.85 26.85 0 0 0-5.307-4.807c-1.7-1.193-4.157-3.081-6.3-3.169-1.232-.051-.846 1.214-.4 1.94 2.154 3.482 5.63 5.32 8.265 8.853-2.111.434-3.714 2.892-3.9 3.208a9.74 9.74 0 0 0-1.353 3.449 35.15 35.15 0 0 0 .157 4.244 12.89 12.89 0 0 0 .012 2.75c.154.646.435 1.254.828 1.789a8.71 8.71 0 0 0 6.19 3.434c.717.075 1.606-.051 1.883-.714.322 1.164 1.127 2.136 2.211 2.669 1.072.522 2.2.92 3.362 1.187a2.13 2.13 0 0 1 .75.331 2.29 2.29 0 0 1 .527.759 16.77 16.77 0 0 0 2.8 3.892" class="E"/><g transform="translate(-169.51 -12.63)" filter="url(#M)"><path d="M528.182,393.483s6.443,12.684,1.982,15.9c-3.4,2.446-52,3.762-53.265-2.608-.729-3.681,39.038-14.3,39.038-14.3l14.483-11.766Z" transform="translate(1129.1 778.69)"/></g><path d="M1464.214 795.475s-12.907 81.9-12.907 150.164c0 98.535 22.841 205.928 24.221 212.9 5.461 3.578 12.245 1.006 12.245 1.006s29.152-86 32.288-111.439c4.792-38.887-8.648-82.636-8.648-82.636s23.1-70.573 31.718-121.093c3.865-22.661-78.916-48.9-78.916-48.9" class="E"/><g transform="translate(-169.51 -12.63)" filter="url(#N)"><path d="M573.138,393.483s6.443,12.684,1.979,15.9c-3.4,2.446-52,3.762-53.262-2.608-.729-3.681,39.038-14.3,39.038-14.3l14.483-11.766Z" transform="translate(1219.56 778.69)"/></g><path d="M1571.771 795.475v150.164c-1.156 101.459 37.8 205.928 39.177 212.9 5.461 3.578 12.248 1.006 12.248 1.006s16.4-68.995 18.624-111.439c2.042-39.044-8.648-82.636-8.648-82.636s9.492-75.814 18.109-126.337c3.865-22.658-79.51-43.659-79.51-43.659" class="E"/><path d="M1459.223 738.58s-12.738 36.535-15.555 134.289c-.753 26.248-.636 34.872 2.47 65.732 102.445 25.857 201.124 3.3 201.124 3.3s25.691-124.774-.868-175.439c-23.525-44.882-47.09-71.079-47.09-71.079" class="Q"/><path d="M1631.921 551.896l12.627 143.122c.422 48.671 19 78.781 14.483 83.3-8.033 8.03-185.753 19.076-204.829 0 0-25.1 5.982-103.222 7.027-118.482 5.021-73.3 28.408-144.314 28.408-144.314s-3.386-21.025 69.841-18.947c34.014 0 62.012 10.793 72.443 55.322" fill="#ddf2ff"/><g class="I"><path d="M1515.373 498.912s-39.143 0-76.79 22.353c-34.11 20.254-51.653 41.177-69.726 41.177s-59.693-79.166-59.693-79.166l-7.027 11.178s12.992 117.2 60.7 131.133c63.811 18.649 132.532-32.309 132.532-32.309m67.332-96.706s-9.172 41.029-9.172 132.567c0 44.24 4.419 182.307 4.419 182.307s63.958 6.368 104.125-18.04c-4.145-42.339 2.747-173.087-14.136-226.435-10.552-33.345-7.862-53.09-26.312-62.054-30.574-7.865-40.33-7.633-58.925-8.344"/><path d="M1515.374 498.912s-9.238 75.519-13.26 144.069 0 165.421 0 165.421-45.571-6.549-58.831-21.875c3.434-46.035 10.094-173.909 20.564-215.206 13.449-53.051 51.527-72.4 51.527-72.4"/></g><g stroke-width="2" class="B C S"><path d="M1633.466 748.783s-19.6 8.223-40.887 8.223m-102.942-.774s-11.326.614-31.649-7.449"/></g><path d="M1527.859 415.861s-33.523 45.141-21.414 57.253 35.658 5.576 44.412-3.178c12.35-12.35 27.649-71.69-23-54.075" class="E"/><path d="M1522.494 445.35s-10.54 6.856-10.124 9.443 3.494 2.518 3.494 2.518" class="B C F K"/><g class="T"><path d="M1532.474 449.783a4.8 4.8 0 0 1-.012.509 7.14 7.14 0 0 1-1.353 3.069c-.955 1.621-3.546-.178-2.4-1.738a11.72 11.72 0 0 1 2.47-2.66c.964-.687 1.265.024 1.3.819m-14.283-11.448a4.8 4.8 0 0 1-.012.509 7.14 7.14 0 0 1-1.352 3.069c-.955 1.621-3.545-.178-2.4-1.738a11.65 11.65 0 0 1 2.47-2.66c.964-.687 1.265.024 1.3.819m21.019 13.61a6.02 6.02 0 0 0 .476-2.181 8.49 8.49 0 0 0-1.334-4.747 7.28 7.28 0 0 0-3.952-3.078 4.5 4.5 0 0 0-1.678-.121 3.83 3.83 0 0 0-.605.163l.533.271c.419.239.811.523 1.169.846a14.69 14.69 0 0 1 2.636 3.145 25.15 25.15 0 0 1 1.961 3.738c.2.542.47 1.021.56 1.4a5.19 5.19 0 0 0 .235.566m-14.517-14.891c.041-.15.07-.303.088-.458a3.1 3.1 0 0 0-.151-1.265c-.466-1.229-1.422-2.21-2.639-2.708a5.25 5.25 0 0 0-3.7-.193 3.57 3.57 0 0 0-1.443.895 5.18 5.18 0 0 0 .449.115 10.26 10.26 0 0 1 1.061.286c.935.259 1.851.583 2.741.97a11.71 11.71 0 0 1 2.452 1.349 7.9 7.9 0 0 1 1.142 1.009"/></g><path d="M1526.169 463.04l-7.424 35.22s7.579 11.6 11.925 11.6c6.3 0 27.044-13.29 27.044-13.29l-7.561-41.406" class="E"/><path d="M1509.907 461.46l9.374 4.5c-6.925 7.976-12.66.328-9.374-4.5" class="D"/><path d="M1522.494 479.748s14.946 1.584 22.977-5.768" class="B C F K"/><g class="D"><path d="M1556.97 490.954l-26.3 18.91 10.7 14.516 18.911-27.8z"/><path d="M1530.668 509.863l-10.907-16.432-2.368 5.274 2.392 23.191z"/></g><path d="M1643.277 748.566c-2.434 2.607-4.627 5.427-6.554 8.428-3.753 6.256-5.073 13.7-5.256 20.992 0 .208.012.455.19.56a.53.53 0 0 0 .424.006c1.437-.428 2.217-1.979 2.582-3.437.292-1.169.34-3.4 1.422-4.069a6.57 6.57 0 0 1 .524 3.307q-.014 7.455-.024 14.91c-.027.312.028.625.157.91a.63.63 0 0 0 .783.313c.155-.101.273-.249.337-.422a11.03 11.03 0 0 0 .8-2.934 86 86 0 0 0 1.124-11.491 74.03 74.03 0 0 1-.81 13.479c-.087.621-.377 2.533.391 2.871.931.41 1.943-3.473 2.193-4.238 1.165-3.891 2.05-7.86 2.648-11.877-.229 5.678-1.13 12.974-.843 13.374 1.34 1.877 2.928-6.428 3.048-7.44q.425-3.47.75-6.952c.054 3.753-1.22 11.26-.033 11.26s1.554-1.72 1.838-2.871a71.89 71.89 0 0 0 1.707-21.591c-.083-.711-.05-1.43.1-2.13a6.27 6.27 0 0 1 1.115-1.982q2.142-2.91 4.283-5.823" class="E"/><path d="M1591.048 498.912s34.731-.066 74.157 28.622c45.005 32.743 74.16 86.676 74.16 130.753 0 60.244-87.369 100.954-87.369 100.954l-9.88-8.034s39-88.179 39-96.213-68.277-87.531-68.277-87.531" class="I"/><path d="M1642.12 751.206l18.037-41.64" class="B H S W"/><path d="M1531.768 404.136c1.181-.594 2.425-1.053 3.708-1.368 9.711-2.389 20.694-.825 29.758 3.223 9.2 4.109 17.48 13.35 20.335 23.052 3.085 10.476 3.624 22.95-.491 33.243-4.136 10.353-15.347 16.754-26.477 17.386a12.83 12.83 0 0 1-7.254-1.256c-2.148-1.259-3.639-3.928-2.846-6.286.774-2.3 3.488-4.283 2.548-6.515-1.53-3.645-10.232-1.033-8.323-7.53.545-1.859 2.961-3.124 4.232-4.515a60.85 60.85 0 0 0 6.052-8.275c.6-.931 1.2-2.06.789-3.091-.428-.774-1.123-1.365-1.955-1.663q-5.756-2.869-11.513-5.735c-1.069-.462-2.058-1.093-2.928-1.868-2.9-2.874-1.787-7.7-.473-11.567-3.5 1.543-5.839 4.919-6.055 8.738-3.88-.297-7.643-1.462-11.012-3.41a4.8 4.8 0 0 1-2.292-2.241c-.491-1.316.127-2.762.738-4.03 3.051-6.353 7.082-13.094 13.458-16.293"/><path d="M1549.748 460.215c4.976-3.181 9.645-.527 9.738 5.172.066 3.859-2.726 6.539-6.4 7.982-5.042 1.973-12.874-4.69-8.018-8.009" class="E"/><path d="M1576.397 413.05a16.85 16.85 0 0 1 24.983-9.705 29.17 29.17 0 0 0 3.482 2.105c3.133 1.365 6.747.563 10.031-.383 6.452-1.859 12.793-4.205 19.408-5.371 14.989-2.642 31.348 1.386 42.394 11.856 9.3 8.814 15.57 25.393 14.088 38.189-3.389 29.312-41.417 43.421-63.56 15.823-2.809-3.751-6.761-6.488-11.26-7.8-4.59-1.214-9.6-2.093-12.964-5.44-4.244-4.217-4.485-10.856-6.317-16.552-1.84-5.717-7.2-15.678-14.308-14.8-1.952.244-3.789 1.093-5.741 1.328s-4.25-.383-5.052-2.178m-1112.008 792.08h0a3.13 3.13 0 0 1-3.078-3.717l36.689-192.446h14.531l-45.091 193.741c-.331 1.418-1.595 2.421-3.051 2.422m180.626 0h0a3.13 3.13 0 0 0 3.075-3.717l-36.685-192.446h-14.531l45.089 193.741c.331 1.418 1.595 2.421 3.051 2.422m-74.105 0h.126c.854 0 1.672-.349 2.263-.966a3.13 3.13 0 0 0 .867-2.302l-8.338-192.895h-14.53l16.492 193.3a3.13 3.13 0 0 0 3.121 2.865"/><path d="M616.018 935.49c0 9.4-.41 45.587 8.79 56.915 10.133 12.479 22.335 8.268 42.912 17.663 13.588 6.2 11.443 27.474-12.51 27.474H491.141c-72.027 0-95.583-86.128-82.438-171.77 13.567-88.372 59.482-115.551 110.222-113.626 60.979 2.313 97.092 78.426 97.092 183.343" class="I"/><path d="M766.645 1111.565s24.122 3.645 25.983 10.582c.618 2.289-13.715 4.786-25.754 4.374-1.946-.066-5.823.368-7.109-4.425a18.32 18.32 0 0 1 .262-8.754m-32.944 84.824s20.967 12.462 20.079 19.594c-.292 2.353-14.507-.735-25.5-5.657-1.777-.8-5.53-1.853-4.916-6.777a18.32 18.32 0 0 1 3.539-8.006"/><path d="M536.413 911.977s127.2 33.92 157.375 65.711c12.91 13.6 23.061 78.609 29.815 137.624 6.178 53.984 6.386 84.694 6.386 84.694l-11.814.331s-54.194-89.968-60.954-109.798c-9.877-28.974-10.464-50.677-9.347-63.431.259-3.069-.908-6.088-3.165-8.184s-5.354-3.037-8.396-2.55c-34.959 5.5-127.021 17.206-168.409-4.2-30.872-15.971-40.776-78.447-20.4-103.156"/><path d="M720.281 1197.318s-50.222-96.574-56.982-116.4c-9.877-28.977-10.467-50.677-9.347-63.434.261-3.07-.906-6.09-3.164-8.187s-5.355-3.038-8.397-2.552c-34.959 5.5-127.021 17.209-168.409-4.2" stroke="#56647a" class="B C F X"/><path d="M504.599 923.408s154.14-26.125 213.272 10.892c51.807 32.432 50.072 177.672 50.072 177.672s-2.925 5.012-8.549 5.955c-2.8-2.133-40.7-52.451-57.488-84.884-12.666-24.471-8.118-55.358-8.118-55.358s-131.579 66.073-216.884 38.351c-59.795-19.432-36.312-94.269-36.312-94.269"/><g class="B C"><path d="M714.41 1054.68c-6.91-76.995-20.624-76.992-20.624-76.992s-81.013 41.047-156.068 45.4" stroke="#15243a" class="H"/><path d="M455.787 925.952s-7.4 57.919 29.044 71.512c76.612 28.574 205.052-34.429 212.769-30.887 32.387 14.871 11.275 77.085 63.488 147.543" stroke="#56647a" class="F X"/></g><g fill="#ccbeb6"><path d="M590.751 706.024s32.6 1.931 59.394 35.143c39.658 49.156 20.411 127.362 25.938 132.536 17.736 16.6 71.109 23.091 71.109 23.091v8.034s-96.6 22.07-118.674 0S596.544 770.8 596.544 770.8"/><path d="M546.481 706.024s-111.71 12.531-109.849 223.423c56.373 46.044 183.018 8.383 207.35-11.175 0-13.082-7.654-42.553-12.19-65.509-1.922-9.555.017-19.483 5.392-27.613 6.928-10.419 15.085-26.354 12.458-40.809-5.66-31.125-38.613-63.054-48.545-70.383s-54.617-7.934-54.617-7.934"/></g><path d="M643.983 918.272c0-13.082-7.651-42.553-12.19-65.509a36.9 36.9 0 0 1 5.389-27.613c6.931-10.419 15.088-26.354 12.461-40.809-2.627-14.437-12.883-30.249-23.128-43.05" stroke="#9b8e89" class="B C H"/><path d="M573.835 901.817l20.42 4.829s19.643-6.961 25.4-4.829 20.444 16.456 16.678 16.456h-66.667" fill="#fde5df"/><path d="M576.994 704.763s-88.122-13.968-121.208 50.46-28.434 112.111 6.719 142.576c40.546 35.14 117.508 21.724 117.508 21.724l1.253-16.615s-73.552-29.206-73.552-60.331 16.422-86.351 16.422-86.351" fill="#ccbeb6"/><g stroke="#9b8e89" class="B C H"><path d="M581.263 902.908s-73.549-29.206-73.549-60.331 16.416-86.35 16.416-86.35m-84.342 110.899c29.369 75.229 140.221 52.4 140.221 52.4"/></g><path d="M625.388 640.518c2.38 4.576 11.862 24.607 4.082 61.967-1.524 1.524-17.962 1.316-28.369-2.1-2.033-.666-6.169-5.184-7.16-7.079"/><g class="E"><path d="M621.135 650.389c4.759 8.277 6.964 50.689-19.971 50.689-6.717 0-11.97-3.9-16.04-7.97-7.244-7.241-8.284-16.459-5.705-33.2 2.344-15.182 10.151-22.149 18.6-23 11.293-1.139 18.356 5.2 23.116 13.477"/><path d="M596.721 676.975l-.181 30.788s1.651 7.952-8.386 7.952c-12.974 0-17.248-7.329-17.248-7.329l6.44-30.688"/></g><path d="M611.566 668.902s4.524 11.733 2.669 13.585-4.307-.006-4.307-.006" class="B C F K"/><g class="T"><path d="M600.881 666.646a4.36 4.36 0 0 0-.289.422c-.491 1.021-.731 2.145-.7 3.277-.175 1.874 2.976 1.937 2.964 0a11.82 11.82 0 0 0-.443-3.606c-.376-1.121-1.039-.72-1.53-.093m18.279-.909a4.31 4.31 0 0 0-.289.419c-.491 1.022-.731 2.147-.7 3.28-.175 1.874 2.976 1.937 2.964 0a11.81 11.81 0 0 0-.443-3.606c-.376-1.121-1.039-.72-1.53-.093m-25.015-1.296a6.1 6.1 0 0 1 .892-2.048 8.53 8.53 0 0 1 3.86-3.064c1.595-.65 3.369-.713 5.006-.178a4.44 4.44 0 0 1 1.428.889 3.95 3.95 0 0 1 .4.485s-.241-.024-.593-.093c-.479-.052-.961-.052-1.44 0-1.366.147-2.705.484-3.979 1a25.07 25.07 0 0 0-3.777 1.88l-1.277.8a5.25 5.25 0 0 1-.521.322m20.49-3.547a3.5 3.5 0 0 1 .2-.425 3.08 3.08 0 0 1 .867-.934c1.097-.723 2.445-.959 3.723-.651a5.28 5.28 0 0 1 3.112 2.015 3.6 3.6 0 0 1 .645 1.569 4.36 4.36 0 0 1-.434-.172c-.335-.147-.678-.277-1.027-.389a20.92 20.92 0 0 0-2.789-.819 11.61 11.61 0 0 0-2.777-.343 7.94 7.94 0 0 0-1.515.148"/></g><g class="B C F K"><path d="M602.089 687.485c.557 6.247 9.284 5.934 10.232 1.846m-32.296-4.088s3.359 13.2 16.558 15.275"/></g><path d="M628.477 646.211c.166 1.874-.072 3.94-1.38 5.292-1.78 1.846-5.033 2.075-7.437 2.229-10.214.657-22.573-5.576-29.67 4.235-8.705 12.037-7.874 28.26-6.672 43.065-7.952.56-27.429-2.349-33.661-17.29a94.05 94.05 0 0 1 11.738-43.005c6.663-11.992 19.835-20.17 34.038-19.215 13.166.883 31.727 9.8 33.041 24.688"/><path d="M588.154 670.514c-.241-1.193-.947-2.241-1.962-2.913s-2.256-.911-3.448-.665a5.65 5.65 0 0 0-3.6 3.271c-1.223 2.72-.223 6.678 1.533 9.211 2.072 2.988 5.579 3.56 7.476.3" class="E"/><g class="D"><path d="M620.551 830.705l-18.215 95.246h144.4l18.426-96.553c.149-.937-.119-1.892-.735-2.614s-1.516-1.138-2.465-1.139H626.485a6.01 6.01 0 0 0-5.934 5.06"/><path d="M645.654 925.953h-90.447v-2.274a5.41 5.41 0 0 1 5.407-5.407h85.04z"/></g><path d="M700.054 877.054a13.43 13.43 0 0 1-12.871 11.284 9.58 9.58 0 0 1-9.7-11.284c1.024-6.363 6.426-11.099 12.868-11.284a9.58 9.58 0 0 1 9.7 11.284" fill="#131b6e"/><path d="M994.153 784.676H702.666l17.425-14.9v-39.443c.001-9.652 7.825-17.476 17.477-17.477h256.585c9.652.001 17.476 7.825 17.477 17.477v36.866c-.001 9.652-7.825 17.476-17.477 17.477" class="D"/><path d="M994.153 784.676H702.666l17.425-14.9v-39.443c.001-9.652 7.825-17.476 17.477-17.477h256.585c9.652.001 17.476 7.825 17.477 17.477v36.866c-.001 9.652-7.825 17.476-17.477 17.477z" stroke="#22577a" class="B C"/><g class="N"><path d="M769.985 734.059l3.392 8.856 9.47.488c.854.045 1.591.611 1.855 1.424s-.001 1.705-.665 2.242l-7.374 5.961 2.461 9.16c.221.825-.089 1.702-.781 2.204s-1.621.526-2.337.061l-7.949-5.172-7.949 5.172c-.717.465-1.646.441-2.337-.061s-1.002-1.379-.781-2.204l2.464-9.16-7.377-5.961c-.665-.538-.929-1.43-.665-2.243s1.003-1.379 1.858-1.423l9.47-.488 3.392-8.856a2.06 2.06 0 0 1 3.853 0m48.9 0l3.392 8.856 9.47.488c.854.045 1.591.611 1.855 1.424s-.001 1.705-.665 2.242l-7.374 5.961 2.461 9.16a2.06 2.06 0 0 1-.78 2.205c-.692.502-1.622.526-2.338.06l-7.949-5.172-7.949 5.172c-.717.465-1.646.441-2.337-.061s-1.002-1.379-.781-2.204l2.464-9.16-7.377-5.961c-.665-.538-.929-1.43-.665-2.243s1.003-1.379 1.858-1.423l9.47-.488 3.389-8.856c.305-.799 1.072-1.327 1.928-1.327s1.623.528 1.928 1.327"/><use xlink:href="#T"/><path d="M916.69 734.059l3.392 8.856 9.47.488c.854.045 1.591.611 1.855 1.424s-.001 1.705-.665 2.242l-7.374 5.961 2.461 9.16c.221.825-.089 1.702-.781 2.204s-1.621.526-2.337.061l-7.949-5.172-7.949 5.172c-.717.465-1.646.441-2.337-.061s-1.002-1.379-.781-2.204l2.464-9.16-7.377-5.961c-.665-.538-.929-1.43-.665-2.243s1.003-1.379 1.858-1.423l9.47-.488 3.389-8.856c.305-.799 1.072-1.327 1.928-1.327s1.623.528 1.928 1.327"/></g><path d="M963.669 737.451l2.506 6.542.7 1.831 1.958.1 7 .361-5.449 4.4-1.524 1.232.509 1.892 1.819 6.765-5.874-3.819-1.642-1.069-1.642 1.069-5.873 3.823 1.819-6.765.509-1.892-1.524-1.232-5.449-4.4 7-.361 1.958-.1.7-1.831zm0-4.717c-.858-.009-1.629.521-1.928 1.325l-3.389 8.856-9.473.488c-.854.045-1.591.611-1.855 1.424s.001 1.705.665 2.242l7.374 5.961-2.461 9.16a2.07 2.07 0 0 0 2 2.605c.399-.002.789-.12 1.121-.34l7.949-5.172 7.949 5.172c.332.22.722.339 1.121.34a2.07 2.07 0 0 0 2-2.605l-2.464-9.16 7.377-5.961c.665-.538.929-1.429.665-2.242s-1.002-1.379-1.855-1.424l-9.473-.488-3.389-8.856c-.299-.804-1.07-1.334-1.928-1.325" fill="#22577a"/><path d="M397.826 486.414a27.18 27.18 0 0 0 1.277-27.23c-.249-.637-.746-1.146-1.377-1.41-.505-.089-1.025-.012-1.482.22-4.139 1.675-6.925 5.609-8.853 9.636s-3.25 8.368-5.684 12.112c-1.2 1.843-2.651 3.512-3.831 5.368a22.53 22.53 0 0 0-2.56 18.272" class="E"/><path d="M376.033 487.201l15.916 2.325a3.69 3.69 0 0 0 3.729-2.184l12.949-31.556a2.04 2.04 0 0 0-1.615-2.964l-15.919-2.325a3.69 3.69 0 0 0-3.729 2.184l-12.946 31.553a2.04 2.04 0 0 0 1.615 2.967"/><path d="M380.054 509.202c4.928-8.1 15.013-12.229 19.218-20.727 1.466-3.261 2.32-6.765 2.518-10.335.294-3.225.366-6.466.214-9.7-2.078-.735-4.093 1.494-4.536 3.654s-.045 4.473-.813 6.539a3.5 3.5 0 0 1-.7 1.208c-.684.588-1.506.993-2.389 1.175-4.984 1.45-9.423 4.352-12.751 8.335-3.812 4.836-5.402 11.058-4.377 17.13" class="E"/><path d="M142.242 460.163C52.707 457.503 0 597.522 0 633.807c0 66.606 85.14 121.364 85.14 121.364l5.413-13.913-40.388-87.809s79.1-90.019 79.3-117.138c.268-36.285 24.579-76.148 12.781-76.148" class="I"/><g transform="translate(-169.51 -12.63)" filter="url(#O)"><path d="M41.578,395.652c-6.621,9.609-5.681,25.4-3.407,25.4s61.768,3.979,61.768-1.56c0-8.235-43.18-21.857-43.18-21.857" transform="translate(242.9 808.76)"/></g><path d="M141.597 1125.602l-8.85 69.009s-1.792 4.6-9.127 4.6-10.54-4.094-10.54-4.094l-5.527-78.925" class="E"/><path d="M180.878 710.486s9.808 79.386.187 239.216c-4.728 78.594-44.587 228.128-44.587 228.128h-25.719S94.49 1051.659 94.49 1017.777a511.85 511.85 0 0 1 4.621-65.434l-18.9-119.566s-31.785-64.624 21.32-124.7"/><path d="M167.758 710.486s9.808 79.386.187 239.216c-4.73 78.594-34.662 228.129-34.662 228.129" stroke="#0240ad" class="B C H"/><g transform="translate(-169.51 -12.63)" filter="url(#P)"><path d="M80.679,395.652c-6.618,9.609-5.681,25.4-3.407,25.4s61.768,3.979,61.768-1.56c0-8.235-43.177-21.857-43.177-21.857" transform="translate(321.58 808.76)"/></g><path d="M259.377 1125.602l-8.851 69.009s-1.792 4.6-9.127 4.6-10.54-4.094-10.54-4.094l-5.527-78.925" class="E"/><path d="M260.283 710.486s21.085 87.507 16.368 253.672c-2.232 78.706-22.393 213.673-22.393 213.673h-25.724s-28.779-137.458-28.779-171.339-54.484-173.714-54.484-173.714-51.665-34.785-15.519-134.88"/><path d="M248.38 1177.83s19.239-153.787 17.489-262.41c-1.018-63.214-17.929-169.643-17.929-169.643" stroke="#22577a" class="B C H"/><g fill="#22577a"><path d="M227.644 1179.446h27.658l1.657-11.28H226.22zm-117.482 0h28.1l1.684-11.28h-31.23z"/></g><g class="I"><path d="M142.242 460.163s-51.439 14.8-64.633 36.791c-6.172 10.287-3 72.759 1.693 121.464 7.741 80.32 2.343 95.724 7.244 106.409 4.4 9.591 43.4 16.431 75.287 16.431s110.52-1.572 104.282-16.841c-5.018-12.29-9.2-50.96.31-169.845 6.536-6.536-10.934-94.408-124.184-94.408"/><path d="M160.809 458.835s61.714-11.564 106.814 33.531c23.808 23.808 33.095 47.785 47.62 69.982 25.372-34.914 57.186-64.9 57.186-64.9l13.076 8.8s-45.482 168.983-96.723 141.279c-34.381-18.588-84.579-92.432-84.579-92.432"/></g><g class="E"><path d="M203.964 394.681a69.9 69.9 0 0 1 9.847 14.811c.45.8.754 1.672.9 2.578a2.87 2.87 0 0 1-.852 2.5c-.418.31-.894.535-1.4.66a21.14 21.14 0 0 1-12.311-.042"/><path d="M201.778 375.364s13.115 54.081-.581 61.4c-8.473 4.533-14.663.175-14.663.175l3.009 21.929c-4.353 8.392-43.017 8.359-47.3 1.292l4.777-43.547s6.979-42.288 16.492-48.053 30.206-6.494 38.264 6.8"/></g><path d="M175.653 354.858c1.724-.112 3.454-.096 5.175.048a44.5 44.5 0 0 1 13.248 3.747c2.817 1.079 5.458 2.571 7.835 4.428a12.61 12.61 0 0 1 4.582 7.555 12.79 12.79 0 0 1-.744 6.07c-.648 1.834-1.744 3.711-3.579 4.365-1.323.337-2.707.356-4.039.054-3.377-.458-7.043-.6-10.247.753-2.636 1.108-6.051 1.774-7.244 4.741-1.75 4.362 2.976 9.169 1.738 13.706a9.01 9.01 0 0 1-3.392 4.434c-.289.281-.667.45-1.069.479a1.79 1.79 0 0 1-1.057-.63c-1.949-1.928-3.045-5.313-6.3-4.455-4.079 1.078-5 7.286-4.512 10.711.286 2.214 1.222 4.294 2.69 5.976 1.449 1.485 3.88.626 5.124 1.934.453.624.62 1.412.458 2.166a21.71 21.71 0 0 1-1.732 6.717c-.917 2.381-2.572 4.407-4.723 5.78-3.328 1.889-7.482 1.226-11.181.238a31.86 31.86 0 0 1-11.269-4.994c-5.076-3.874-7.988-9.952-9.835-16.061-2.804-9.294-3.563-19.085-2.223-28.7a22.32 22.32 0 0 1 6.208-13.209 49.23 49.23 0 0 1 9.479-7.458c3.3-2 5.88-4.458 9.681-5.678 3.045-.881 6.16-1.501 9.311-1.852 2.527-.355 5.07-.714 7.615-.861"/><path d="M196.69 395.82a5.09 5.09 0 0 1 .25.666c.506 1.63.105 3.039-.136 4.672-.386 2.594-4.675 1.633-4.015-.985a16.4 16.4 0 0 1 1.8-4.732c.883-1.395 1.645-.633 2.1.38" class="T"/><g class="B"><g class="C"><path d="M200.748 387.515c-5.3-1.865-12.79-1.66-16.052 2.283" stroke="#223554"/><path d="M202.133 421.705c-2.575 2.545-7.386 2.127-12.594.413" stroke="#d8889b" class="F"/></g><g class="H S W"><path d="M259.495 623.646l-42.83-42.797M79.302 618.421s-1.892-58.165-14.29-70.561"/></g></g><path d="M535.36 403.962H241.915l19.388-12.862v-41.481c.001-9.652 7.825-17.476 17.477-17.477h256.58c9.652.001 17.476 7.825 17.477 17.477v36.866c-.001 9.652-7.825 17.476-17.477 17.477" class="D"/><path d="M535.36 403.962H241.915l19.388-12.862v-41.481c.001-9.652 7.825-17.476 17.477-17.477h256.58c9.652.001 17.476 7.825 17.477 17.477v36.866c-.001 9.652-7.825 17.476-17.477 17.477z" stroke="#ff9189" class="B C"/><g class="N"><path d="M311.187 353.348l3.392 8.856 9.47.488c.854.045 1.591.611 1.855 1.424s-.001 1.705-.665 2.242l-7.374 5.961 2.461 9.16c.222.826-.088 1.703-.78 2.205s-1.622.526-2.338.06l-7.949-5.172-7.949 5.172c-.716.467-1.647.443-2.338-.06s-1.002-1.38-.78-2.205l2.464-9.16-7.377-5.963c-.665-.538-.929-1.43-.665-2.243s1.003-1.379 1.858-1.423l9.47-.488 3.392-8.856a2.06 2.06 0 0 1 3.853 0"/><use xlink:href="#U"/><path d="M408.996 353.348l3.392 8.856 9.47.488c.854.045 1.591.611 1.855 1.424s-.001 1.705-.665 2.242l-7.374 5.961 2.461 9.16a2.06 2.06 0 0 1-3.118 2.265l-7.949-5.172-7.949 5.172a2.06 2.06 0 0 1-2.338-.06c-.691-.503-1.002-1.38-.78-2.205l2.464-9.16-7.377-5.961c-.665-.538-.929-1.43-.665-2.243s1.003-1.379 1.858-1.423l9.47-.488 3.392-8.856a2.06 2.06 0 0 1 3.853 0m48.902 0l3.392 8.856 9.47.488c.854.044 1.593.61 1.857 1.423s-.001 1.706-.667 2.243l-7.374 5.961 2.461 9.16a2.06 2.06 0 0 1-3.118 2.265l-7.949-5.172-7.949 5.172a2.06 2.06 0 0 1-2.338-.06c-.691-.503-1.002-1.38-.78-2.205l2.464-9.16-7.377-5.961c-.665-.538-.929-1.43-.665-2.243s1.003-1.379 1.858-1.423l9.47-.488 3.392-8.856a2.06 2.06 0 0 1 3.853 0"/></g><path d="M504.876 356.74l2.506 6.542.7 1.831 1.958.1 7 .361-5.449 4.4-1.524 1.232.509 1.892 1.819 6.765-5.874-3.819-1.642-1.069-1.642 1.069-5.874 3.819 1.819-6.765.509-1.892-1.524-1.232-5.449-4.4 7-.361 1.958-.1.7-1.831zm0-4.717c-.858-.009-1.629.521-1.928 1.325l-3.392 8.856-9.47.488c-.854.045-1.591.611-1.855 1.424s.001 1.705.665 2.242l7.374 5.961-2.461 9.16a2.07 2.07 0 0 0 2 2.606c.399-.001.789-.12 1.121-.34l7.949-5.172 7.949 5.172c.332.22.721.338 1.12.34a2.07 2.07 0 0 0 2-2.606l-2.461-9.16 7.374-5.961c.665-.538.929-1.429.665-2.242s-1.002-1.379-1.855-1.424l-9.47-.488-3.392-8.856c-.299-.804-1.07-1.334-1.928-1.325" class="Q"/></g></g></svg>